<svg class="main-svg" xmlns="http://www.w3.org/2000/svg" xmlns:xlink="http://www.w3.org/1999/xlink" width="1920" height="1920" style="" viewBox="0 0 1920 1920"><rect x="0" y="0" width="1920" height="1920" style="fill: rgb(255, 255, 255); fill-opacity: 1;"/><defs id="defs-6e5c77"><g class="clips"><clipPath id="clip6e5c77xyplot" class="plotclip"><rect width="1468" height="1658"/></clipPath><clipPath class="axesclip" id="clip6e5c77x"><rect x="168" y="0" width="1468" height="1920"/></clipPath><clipPath class="axesclip" id="clip6e5c77y"><rect x="0" y="100" width="1920" height="1658"/></clipPath><clipPath class="axesclip" id="clip6e5c77xy"><rect x="168" y="100" width="1468" height="1658"/></clipPath></g><g class="gradients"><linearGradient x1="0" y1="1" x2="0" y2="0" gradientUnits="objectBoundingBox" id="g6e5c77-cbcoloraxis"><stop offset="0%" stop-color="rgb(13, 8, 135)" stop-opacity="1"/><stop offset="16.666667%" stop-color="rgb(13, 8, 135)" stop-opacity="1"/><stop offset="16.666667%" stop-color="rgb(106, 0, 168)" stop-opacity="1"/><stop offset="33.333333%" stop-color="rgb(106, 0, 168)" stop-opacity="1"/><stop offset="33.333333%" stop-color="rgb(177, 42, 144)" stop-opacity="1"/><stop offset="50%" stop-color="rgb(177, 42, 144)" stop-opacity="1"/><stop offset="50%" stop-color="rgb(225, 100, 98)" stop-opacity="1"/><stop offset="66.666667%" stop-color="rgb(225, 100, 98)" stop-opacity="1"/><stop offset="66.666667%" stop-color="rgb(252, 166, 54)" stop-opacity="1"/><stop offset="83.333333%" stop-color="rgb(252, 166, 54)" stop-opacity="1"/><stop offset="83.333333%" stop-color="rgb(240, 249, 33)" stop-opacity="1"/><stop offset="100%" stop-color="rgb(240, 249, 33)" stop-opacity="1"/></linearGradient></g><g class="patterns"/></defs><g class="bglayer"><rect class="bg" x="168" y="100" width="1468" height="1658" style="fill: rgb(255, 255, 255); fill-opacity: 0; stroke-width: 0;"/></g><g class="layer-below"><g class="imagelayer"/><g class="shapelayer"/></g><g class="cartesianlayer"><g class="subplot xy"><g class="layer-subplot"><g class="shapelayer"/><g class="imagelayer"/></g><g class="minor-gridlayer"><g class="x"/><g class="y"/></g><g class="gridlayer"><g class="x"><path class="xgrid crisp" transform="translate(537.5,0)" d="M0,100v1658" style="stroke: rgb(0, 0, 0); stroke-opacity: 0.2; stroke-width: 1px;"/><path class="xgrid crisp" transform="translate(744.91,0)" d="M0,100v1658" style="stroke: rgb(0, 0, 0); stroke-opacity: 0.2; stroke-width: 1px;"/><path class="xgrid crisp" transform="translate(952.32,0)" d="M0,100v1658" style="stroke: rgb(0, 0, 0); stroke-opacity: 0.2; stroke-width: 1px;"/><path class="xgrid crisp" transform="translate(1159.73,0)" d="M0,100v1658" style="stroke: rgb(0, 0, 0); stroke-opacity: 0.2; stroke-width: 1px;"/><path class="xgrid crisp" transform="translate(1367.14,0)" d="M0,100v1658" style="stroke: rgb(0, 0, 0); stroke-opacity: 0.2; stroke-width: 1px;"/><path class="xgrid crisp" transform="translate(1574.55,0)" d="M0,100v1658" style="stroke: rgb(0, 0, 0); stroke-opacity: 0.2; stroke-width: 1px;"/></g><g class="y"><path class="ygrid crisp" transform="translate(0,1558.03)" d="M168,0h1468" style="stroke: rgb(0, 0, 0); stroke-opacity: 0.2; stroke-width: 1px;"/><path class="ygrid crisp" transform="translate(0,1259.26)" d="M168,0h1468" style="stroke: rgb(0, 0, 0); stroke-opacity: 0.2; stroke-width: 1px;"/><path class="ygrid crisp" transform="translate(0,960.5)" d="M168,0h1468" style="stroke: rgb(0, 0, 0); stroke-opacity: 0.2; stroke-width: 1px;"/><path class="ygrid crisp" transform="translate(0,661.73)" d="M168,0h1468" style="stroke: rgb(0, 0, 0); stroke-opacity: 0.2; stroke-width: 1px;"/><path class="ygrid crisp" transform="translate(0,362.97)" d="M168,0h1468" style="stroke: rgb(0, 0, 0); stroke-opacity: 0.2; stroke-width: 1px;"/></g></g><g class="zerolinelayer"><path class="xzl zl crisp" transform="translate(330.09000000000003,0)" d="M0,100v1658" style="stroke: rgb(0, 0, 0); stroke-opacity: 0.4; stroke-width: 2px;"/></g><g class="layer-between"><g class="shapelayer"/><g class="imagelayer"/></g><path class="xlines-below"/><path class="ylines-below"/><g class="overlines-below"/><g class="xaxislayer-below"/><g class="yaxislayer-below"/><g class="overaxes-below"/><g class="overplot"><g class="xy" transform="translate(168,100)" clip-path="url(#clip6e5c77xyplot)"><g class="scatterlayer mlayer"><g class="trace scatter traceed7b74" style="stroke-miterlimit: 2; opacity: 1;"><g class="fills"/><g class="errorbars"/><g class="lines"/><g class="points"><path class="point" transform="translate(913.61,330.49)" d="M16,0A16,16 0 1,1 0,-16A16,16 0 0,1 16,0Z" style="opacity: 1; stroke-width: 4px; fill: rgb(13, 8, 135); fill-opacity: 1; stroke: rgb(0, 0, 0); stroke-opacity: 0;"/><path class="point" transform="translate(655.35,338.88)" d="M16,0A16,16 0 1,1 0,-16A16,16 0 0,1 16,0Z" style="opacity: 1; stroke-width: 4px; fill: rgb(240, 249, 33); fill-opacity: 1; stroke: rgb(0, 0, 0); stroke-opacity: 0;"/></g><g class="text"/></g><g class="trace scatter trace4b8d1d" style="stroke-miterlimit: 2; opacity: 1;"><g class="fills"/><g class="errorbars"/><g class="lines"/><g class="points"><path class="point plotly-customdata" transform="translate(913.61,330.49)" d="M16,0A16,16 0 1,1 0,-16A16,16 0 0,1 16,0Z" style="opacity: 1; stroke-width: 4px; fill: rgb(240, 249, 33); fill-opacity: 1; stroke: rgb(0, 0, 0); stroke-opacity: 0.4;"/><path class="point plotly-customdata" transform="translate(655.35,338.88)" d="M16,0A16,16 0 1,1 0,-16A16,16 0 0,1 16,0Z" style="opacity: 1; stroke-width: 4px; fill: rgb(252, 166, 54); fill-opacity: 1; stroke: rgb(0, 0, 0); stroke-opacity: 0.4;"/><path class="point plotly-customdata" transform="translate(571.98,246.65)" d="M16,0A16,16 0 1,1 0,-16A16,16 0 0,1 16,0Z" style="opacity: 1; stroke-width: 4px; fill: rgb(252, 166, 54); fill-opacity: 1; stroke: rgb(0, 0, 0); stroke-opacity: 0.4;"/><path class="point plotly-customdata" transform="translate(1043.21,393.5)" d="M16,0A16,16 0 1,1 0,-16A16,16 0 0,1 16,0Z" style="opacity: 1; stroke-width: 4px; fill: rgb(240, 249, 33); fill-opacity: 1; stroke: rgb(0, 0, 0); stroke-opacity: 0.4;"/><path class="point plotly-customdata" transform="translate(707.43,362.23)" d="M16,0A16,16 0 1,1 0,-16A16,16 0 0,1 16,0Z" style="opacity: 1; stroke-width: 4px; fill: rgb(177, 42, 144); fill-opacity: 1; stroke: rgb(0, 0, 0); stroke-opacity: 0.4;"/><path class="point plotly-customdata" transform="translate(469.23,129.33)" d="M16,0A16,16 0 1,1 0,-16A16,16 0 0,1 16,0Z" style="opacity: 1; stroke-width: 4px; fill: rgb(106, 0, 168); fill-opacity: 1; stroke: rgb(0, 0, 0); stroke-opacity: 0.4;"/><path class="point plotly-customdata" transform="translate(372.51,285.13)" d="M16,0A16,16 0 1,1 0,-16A16,16 0 0,1 16,0Z" style="opacity: 1; stroke-width: 4px; fill: rgb(252, 166, 54); fill-opacity: 1; stroke: rgb(0, 0, 0); stroke-opacity: 0.4;"/><path class="point plotly-customdata" transform="translate(1015.56,467.1)" d="M16,0A16,16 0 1,1 0,-16A16,16 0 0,1 16,0Z" style="opacity: 1; stroke-width: 4px; fill: rgb(240, 249, 33); fill-opacity: 1; stroke: rgb(0, 0, 0); stroke-opacity: 0.4;"/><path class="point plotly-customdata" transform="translate(1073.29,1187.01)" d="M16,0A16,16 0 1,1 0,-16A16,16 0 0,1 16,0Z" style="opacity: 1; stroke-width: 4px; fill: rgb(252, 166, 54); fill-opacity: 1; stroke: rgb(0, 0, 0); stroke-opacity: 0.4;"/><path class="point plotly-customdata" transform="translate(1371.88,1115.27)" d="M16,0A16,16 0 1,1 0,-16A16,16 0 0,1 16,0Z" style="opacity: 1; stroke-width: 4px; fill: rgb(240, 249, 33); fill-opacity: 1; stroke: rgb(0, 0, 0); stroke-opacity: 0.4;"/><path class="point plotly-customdata" transform="translate(1267.68,1067.1)" d="M16,0A16,16 0 1,1 0,-16A16,16 0 0,1 16,0Z" style="opacity: 1; stroke-width: 4px; fill: rgb(225, 100, 98); fill-opacity: 1; stroke: rgb(0, 0, 0); stroke-opacity: 0.4;"/><path class="point plotly-customdata" transform="translate(1021.82,1199.9)" d="M16,0A16,16 0 1,1 0,-16A16,16 0 0,1 16,0Z" style="opacity: 1; stroke-width: 4px; fill: rgb(225, 100, 98); fill-opacity: 1; stroke: rgb(0, 0, 0); stroke-opacity: 0.4;"/><path class="point plotly-customdata" transform="translate(187.97,1169.32)" d="M16,0A16,16 0 1,1 0,-16A16,16 0 0,1 16,0Z" style="opacity: 1; stroke-width: 4px; fill: rgb(13, 8, 135); fill-opacity: 1; stroke: rgb(0, 0, 0); stroke-opacity: 0.4;"/><path class="point plotly-customdata" transform="translate(1321.24,1172.16)" d="M16,0A16,16 0 1,1 0,-16A16,16 0 0,1 16,0Z" style="opacity: 1; stroke-width: 4px; fill: rgb(177, 42, 144); fill-opacity: 1; stroke: rgb(0, 0, 0); stroke-opacity: 0.4;"/><path class="point plotly-customdata" transform="translate(1341.89,1277.01)" d="M16,0A16,16 0 1,1 0,-16A16,16 0 0,1 16,0Z" style="opacity: 1; stroke-width: 4px; fill: rgb(252, 166, 54); fill-opacity: 1; stroke: rgb(0, 0, 0); stroke-opacity: 0.4;"/><path class="point plotly-customdata" transform="translate(908.42,1390.75)" d="M16,0A16,16 0 1,1 0,-16A16,16 0 0,1 16,0Z" style="opacity: 1; stroke-width: 4px; fill: rgb(240, 249, 33); fill-opacity: 1; stroke: rgb(0, 0, 0); stroke-opacity: 0.4;"/><path class="point plotly-customdata" transform="translate(1185.67,1300.44)" d="M16,0A16,16 0 1,1 0,-16A16,16 0 0,1 16,0Z" style="opacity: 1; stroke-width: 4px; fill: rgb(252, 166, 54); fill-opacity: 1; stroke: rgb(0, 0, 0); stroke-opacity: 0.4;"/><path class="point plotly-customdata" transform="translate(1274.33,1231.22)" d="M16,0A16,16 0 1,1 0,-16A16,16 0 0,1 16,0Z" style="opacity: 1; stroke-width: 4px; fill: rgb(225, 100, 98); fill-opacity: 1; stroke: rgb(0, 0, 0); stroke-opacity: 0.4;"/><path class="point plotly-customdata" transform="translate(1172.91,1262.35)" d="M16,0A16,16 0 1,1 0,-16A16,16 0 0,1 16,0Z" style="opacity: 1; stroke-width: 4px; fill: rgb(252, 166, 54); fill-opacity: 1; stroke: rgb(0, 0, 0); stroke-opacity: 0.4;"/><path class="point plotly-customdata" transform="translate(260.31,1438.36)" d="M16,0A16,16 0 1,1 0,-16A16,16 0 0,1 16,0Z" style="opacity: 1; stroke-width: 4px; fill: rgb(13, 8, 135); fill-opacity: 1; stroke: rgb(0, 0, 0); stroke-opacity: 0.4;"/><path class="point plotly-customdata" transform="translate(1014.67,1360.81)" d="M16,0A16,16 0 1,1 0,-16A16,16 0 0,1 16,0Z" style="opacity: 1; stroke-width: 4px; fill: rgb(225, 100, 98); fill-opacity: 1; stroke: rgb(0, 0, 0); stroke-opacity: 0.4;"/><path class="point plotly-customdata" transform="translate(1146.04,1191.93)" d="M16,0A16,16 0 1,1 0,-16A16,16 0 0,1 16,0Z" style="opacity: 1; stroke-width: 4px; fill: rgb(225, 100, 98); fill-opacity: 1; stroke: rgb(0, 0, 0); stroke-opacity: 0.4;"/><path class="point plotly-customdata" transform="translate(835.66,1496.95)" d="M16,0A16,16 0 1,1 0,-16A16,16 0 0,1 16,0Z" style="opacity: 1; stroke-width: 4px; fill: rgb(252, 166, 54); fill-opacity: 1; stroke: rgb(0, 0, 0); stroke-opacity: 0.4;"/><path class="point plotly-customdata" transform="translate(1075.03,1317.29)" d="M16,0A16,16 0 1,1 0,-16A16,16 0 0,1 16,0Z" style="opacity: 1; stroke-width: 4px; fill: rgb(252, 166, 54); fill-opacity: 1; stroke: rgb(0, 0, 0); stroke-opacity: 0.4;"/><path class="point plotly-customdata" transform="translate(1269.83,1313.31)" d="M16,0A16,16 0 1,1 0,-16A16,16 0 0,1 16,0Z" style="opacity: 1; stroke-width: 4px; fill: rgb(252, 166, 54); fill-opacity: 1; stroke: rgb(0, 0, 0); stroke-opacity: 0.4;"/><path class="point plotly-customdata" transform="translate(236.98,1367.78)" d="M16,0A16,16 0 1,1 0,-16A16,16 0 0,1 16,0Z" style="opacity: 1; stroke-width: 4px; fill: rgb(177, 42, 144); fill-opacity: 1; stroke: rgb(0, 0, 0); stroke-opacity: 0.4;"/><path class="point plotly-customdata" transform="translate(257.41,1555.1)" d="M16,0A16,16 0 1,1 0,-16A16,16 0 0,1 16,0Z" style="opacity: 1; stroke-width: 4px; fill: rgb(13, 8, 135); fill-opacity: 1; stroke: rgb(0, 0, 0); stroke-opacity: 0.4;"/><path class="point plotly-customdata" transform="translate(1211.72,1469.69)" d="M16,0A16,16 0 1,1 0,-16A16,16 0 0,1 16,0Z" style="opacity: 1; stroke-width: 4px; fill: rgb(177, 42, 144); fill-opacity: 1; stroke: rgb(0, 0, 0); stroke-opacity: 0.4;"/><path class="point plotly-customdata" transform="translate(1053.41,1288.52)" d="M16,0A16,16 0 1,1 0,-16A16,16 0 0,1 16,0Z" style="opacity: 1; stroke-width: 4px; fill: rgb(252, 166, 54); fill-opacity: 1; stroke: rgb(0, 0, 0); stroke-opacity: 0.4;"/><path class="point plotly-customdata" transform="translate(926.63,1110.88)" d="M16,0A16,16 0 1,1 0,-16A16,16 0 0,1 16,0Z" style="opacity: 1; stroke-width: 4px; fill: rgb(240, 249, 33); fill-opacity: 1; stroke: rgb(0, 0, 0); stroke-opacity: 0.4;"/><path class="point plotly-customdata" transform="translate(1374.6,1196.8)" d="M16,0A16,16 0 1,1 0,-16A16,16 0 0,1 16,0Z" style="opacity: 1; stroke-width: 4px; fill: rgb(252, 166, 54); fill-opacity: 1; stroke: rgb(0, 0, 0); stroke-opacity: 0.4;"/><path class="point plotly-customdata" transform="translate(1185.69,1261.23)" d="M16,0A16,16 0 1,1 0,-16A16,16 0 0,1 16,0Z" style="opacity: 1; stroke-width: 4px; fill: rgb(252, 166, 54); fill-opacity: 1; stroke: rgb(0, 0, 0); stroke-opacity: 0.4;"/><path class="point plotly-customdata" transform="translate(900.5,1232.51)" d="M16,0A16,16 0 1,1 0,-16A16,16 0 0,1 16,0Z" style="opacity: 1; stroke-width: 4px; fill: rgb(177, 42, 144); fill-opacity: 1; stroke: rgb(0, 0, 0); stroke-opacity: 0.4;"/><path class="point plotly-customdata" transform="translate(269.62,1127.71)" d="M16,0A16,16 0 1,1 0,-16A16,16 0 0,1 16,0Z" style="opacity: 1; stroke-width: 4px; fill: rgb(13, 8, 135); fill-opacity: 1; stroke: rgb(0, 0, 0); stroke-opacity: 0.4;"/><path class="point plotly-customdata" transform="translate(900.19,1224.11)" d="M16,0A16,16 0 1,1 0,-16A16,16 0 0,1 16,0Z" style="opacity: 1; stroke-width: 4px; fill: rgb(225, 100, 98); fill-opacity: 1; stroke: rgb(0, 0, 0); stroke-opacity: 0.4;"/><path class="point plotly-customdata" transform="translate(1182.86,1359.27)" d="M16,0A16,16 0 1,1 0,-16A16,16 0 0,1 16,0Z" style="opacity: 1; stroke-width: 4px; fill: rgb(240, 249, 33); fill-opacity: 1; stroke: rgb(0, 0, 0); stroke-opacity: 0.4;"/><path class="point plotly-customdata" transform="translate(782.22,485.98)" d="M16,0A16,16 0 1,1 0,-16A16,16 0 0,1 16,0Z" style="opacity: 1; stroke-width: 4px; fill: rgb(252, 166, 54); fill-opacity: 1; stroke: rgb(0, 0, 0); stroke-opacity: 0.4;"/><path class="point plotly-customdata" transform="translate(1313.2,231.67)" d="M16,0A16,16 0 1,1 0,-16A16,16 0 0,1 16,0Z" style="opacity: 1; stroke-width: 4px; fill: rgb(225, 100, 98); fill-opacity: 1; stroke: rgb(0, 0, 0); stroke-opacity: 0.4;"/><path class="point plotly-customdata" transform="translate(1059.16,220.13)" d="M16,0A16,16 0 1,1 0,-16A16,16 0 0,1 16,0Z" style="opacity: 1; stroke-width: 4px; fill: rgb(252, 166, 54); fill-opacity: 1; stroke: rgb(0, 0, 0); stroke-opacity: 0.4;"/><path class="point plotly-customdata" transform="translate(1270.84,337.58)" d="M16,0A16,16 0 1,1 0,-16A16,16 0 0,1 16,0Z" style="opacity: 1; stroke-width: 4px; fill: rgb(225, 100, 98); fill-opacity: 1; stroke: rgb(0, 0, 0); stroke-opacity: 0.4;"/><path class="point plotly-customdata" transform="translate(108.15,484.25)" d="M16,0A16,16 0 1,1 0,-16A16,16 0 0,1 16,0Z" style="opacity: 1; stroke-width: 4px; fill: rgb(13, 8, 135); fill-opacity: 1; stroke: rgb(0, 0, 0); stroke-opacity: 0.4;"/><path class="point plotly-customdata" transform="translate(1304.79,313.31)" d="M16,0A16,16 0 1,1 0,-16A16,16 0 0,1 16,0Z" style="opacity: 1; stroke-width: 4px; fill: rgb(225, 100, 98); fill-opacity: 1; stroke: rgb(0, 0, 0); stroke-opacity: 0.4;"/><path class="point plotly-customdata" transform="translate(1352.76,102.9)" d="M16,0A16,16 0 1,1 0,-16A16,16 0 0,1 16,0Z" style="opacity: 1; stroke-width: 4px; fill: rgb(252, 166, 54); fill-opacity: 1; stroke: rgb(0, 0, 0); stroke-opacity: 0.4;"/><path class="point plotly-customdata" transform="translate(699.17,712.76)" d="M16,0A16,16 0 1,1 0,-16A16,16 0 0,1 16,0Z" style="opacity: 1; stroke-width: 4px; fill: rgb(106, 0, 168); fill-opacity: 1; stroke: rgb(0, 0, 0); stroke-opacity: 0.4;"/><path class="point plotly-customdata" transform="translate(1097.72,875.22)" d="M16,0A16,16 0 1,1 0,-16A16,16 0 0,1 16,0Z" style="opacity: 1; stroke-width: 4px; fill: rgb(177, 42, 144); fill-opacity: 1; stroke: rgb(0, 0, 0); stroke-opacity: 0.4;"/><path class="point plotly-customdata" transform="translate(1163.29,833.99)" d="M16,0A16,16 0 1,1 0,-16A16,16 0 0,1 16,0Z" style="opacity: 1; stroke-width: 4px; fill: rgb(225, 100, 98); fill-opacity: 1; stroke: rgb(0, 0, 0); stroke-opacity: 0.4;"/><path class="point plotly-customdata" transform="translate(317.56,771.16)" d="M16,0A16,16 0 1,1 0,-16A16,16 0 0,1 16,0Z" style="opacity: 1; stroke-width: 4px; fill: rgb(177, 42, 144); fill-opacity: 1; stroke: rgb(0, 0, 0); stroke-opacity: 0.4;"/><path class="point plotly-customdata" transform="translate(900.52,885.9)" d="M16,0A16,16 0 1,1 0,-16A16,16 0 0,1 16,0Z" style="opacity: 1; stroke-width: 4px; fill: rgb(177, 42, 144); fill-opacity: 1; stroke: rgb(0, 0, 0); stroke-opacity: 0.4;"/><path class="point plotly-customdata" transform="translate(203.43,758.73)" d="M16,0A16,16 0 1,1 0,-16A16,16 0 0,1 16,0Z" style="opacity: 1; stroke-width: 4px; fill: rgb(106, 0, 168); fill-opacity: 1; stroke: rgb(0, 0, 0); stroke-opacity: 0.4;"/><path class="point plotly-customdata" transform="translate(717.89,798.58)" d="M16,0A16,16 0 1,1 0,-16A16,16 0 0,1 16,0Z" style="opacity: 1; stroke-width: 4px; fill: rgb(106, 0, 168); fill-opacity: 1; stroke: rgb(0, 0, 0); stroke-opacity: 0.4;"/><path class="point plotly-customdata" transform="translate(867.6,1002.64)" d="M16,0A16,16 0 1,1 0,-16A16,16 0 0,1 16,0Z" style="opacity: 1; stroke-width: 4px; fill: rgb(240, 249, 33); fill-opacity: 1; stroke: rgb(0, 0, 0); stroke-opacity: 0.4;"/><path class="point plotly-customdata" transform="translate(1024.71,1048.32)" d="M16,0A16,16 0 1,1 0,-16A16,16 0 0,1 16,0Z" style="opacity: 1; stroke-width: 4px; fill: rgb(225, 100, 98); fill-opacity: 1; stroke: rgb(0, 0, 0); stroke-opacity: 0.4;"/><path class="point plotly-customdata" transform="translate(1150.19,1134.48)" d="M16,0A16,16 0 1,1 0,-16A16,16 0 0,1 16,0Z" style="opacity: 1; stroke-width: 4px; fill: rgb(225, 100, 98); fill-opacity: 1; stroke: rgb(0, 0, 0); stroke-opacity: 0.4;"/><path class="point plotly-customdata" transform="translate(966.48,1039.14)" d="M16,0A16,16 0 1,1 0,-16A16,16 0 0,1 16,0Z" style="opacity: 1; stroke-width: 4px; fill: rgb(225, 100, 98); fill-opacity: 1; stroke: rgb(0, 0, 0); stroke-opacity: 0.4;"/><path class="point plotly-customdata" transform="translate(1272.59,1033.77)" d="M16,0A16,16 0 1,1 0,-16A16,16 0 0,1 16,0Z" style="opacity: 1; stroke-width: 4px; fill: rgb(225, 100, 98); fill-opacity: 1; stroke: rgb(0, 0, 0); stroke-opacity: 0.4;"/><path class="point plotly-customdata" transform="translate(93.4,1079.94)" d="M16,0A16,16 0 1,1 0,-16A16,16 0 0,1 16,0Z" style="opacity: 1; stroke-width: 4px; fill: rgb(13, 8, 135); fill-opacity: 1; stroke: rgb(0, 0, 0); stroke-opacity: 0.4;"/><path class="point plotly-customdata" transform="translate(1006.26,1171)" d="M16,0A16,16 0 1,1 0,-16A16,16 0 0,1 16,0Z" style="opacity: 1; stroke-width: 4px; fill: rgb(177, 42, 144); fill-opacity: 1; stroke: rgb(0, 0, 0); stroke-opacity: 0.4;"/><path class="point plotly-customdata" transform="translate(844.28,1286.65)" d="M16,0A16,16 0 1,1 0,-16A16,16 0 0,1 16,0Z" style="opacity: 1; stroke-width: 4px; fill: rgb(240, 249, 33); fill-opacity: 1; stroke: rgb(0, 0, 0); stroke-opacity: 0.4;"/><path class="point plotly-customdata" transform="translate(1326.3,1178.95)" d="M16,0A16,16 0 1,1 0,-16A16,16 0 0,1 16,0Z" style="opacity: 1; stroke-width: 4px; fill: rgb(177, 42, 144); fill-opacity: 1; stroke: rgb(0, 0, 0); stroke-opacity: 0.4;"/><path class="point plotly-customdata" transform="translate(1085.77,1092.51)" d="M16,0A16,16 0 1,1 0,-16A16,16 0 0,1 16,0Z" style="opacity: 1; stroke-width: 4px; fill: rgb(225, 100, 98); fill-opacity: 1; stroke: rgb(0, 0, 0); stroke-opacity: 0.4;"/><path class="point plotly-customdata" transform="translate(1259.78,1226.32)" d="M16,0A16,16 0 1,1 0,-16A16,16 0 0,1 16,0Z" style="opacity: 1; stroke-width: 4px; fill: rgb(225, 100, 98); fill-opacity: 1; stroke: rgb(0, 0, 0); stroke-opacity: 0.4;"/><path class="point plotly-customdata" transform="translate(1275.08,1177.07)" d="M16,0A16,16 0 1,1 0,-16A16,16 0 0,1 16,0Z" style="opacity: 1; stroke-width: 4px; fill: rgb(177, 42, 144); fill-opacity: 1; stroke: rgb(0, 0, 0); stroke-opacity: 0.4;"/><path class="point plotly-customdata" transform="translate(719.72,1112.32)" d="M16,0A16,16 0 1,1 0,-16A16,16 0 0,1 16,0Z" style="opacity: 1; stroke-width: 4px; fill: rgb(106, 0, 168); fill-opacity: 1; stroke: rgb(0, 0, 0); stroke-opacity: 0.4;"/><path class="point plotly-customdata" transform="translate(204.23,1259.83)" d="M16,0A16,16 0 1,1 0,-16A16,16 0 0,1 16,0Z" style="opacity: 1; stroke-width: 4px; fill: rgb(106, 0, 168); fill-opacity: 1; stroke: rgb(0, 0, 0); stroke-opacity: 0.4;"/><path class="point plotly-customdata" transform="translate(905.12,1052.31)" d="M16,0A16,16 0 1,1 0,-16A16,16 0 0,1 16,0Z" style="opacity: 1; stroke-width: 4px; fill: rgb(240, 249, 33); fill-opacity: 1; stroke: rgb(0, 0, 0); stroke-opacity: 0.4;"/><path class="point plotly-customdata" transform="translate(1337.12,789.91)" d="M16,0A16,16 0 1,1 0,-16A16,16 0 0,1 16,0Z" style="opacity: 1; stroke-width: 4px; fill: rgb(252, 166, 54); fill-opacity: 1; stroke: rgb(0, 0, 0); stroke-opacity: 0.4;"/><path class="point plotly-customdata" transform="translate(1125.66,774.02)" d="M16,0A16,16 0 1,1 0,-16A16,16 0 0,1 16,0Z" style="opacity: 1; stroke-width: 4px; fill: rgb(225, 100, 98); fill-opacity: 1; stroke: rgb(0, 0, 0); stroke-opacity: 0.4;"/><path class="point plotly-customdata" transform="translate(1131.52,899.19)" d="M16,0A16,16 0 1,1 0,-16A16,16 0 0,1 16,0Z" style="opacity: 1; stroke-width: 4px; fill: rgb(240, 249, 33); fill-opacity: 1; stroke: rgb(0, 0, 0); stroke-opacity: 0.4;"/><path class="point plotly-customdata" transform="translate(1275.53,725.41)" d="M16,0A16,16 0 1,1 0,-16A16,16 0 0,1 16,0Z" style="opacity: 1; stroke-width: 4px; fill: rgb(177, 42, 144); fill-opacity: 1; stroke: rgb(0, 0, 0); stroke-opacity: 0.4;"/><path class="point plotly-customdata" transform="translate(657.9,754.27)" d="M16,0A16,16 0 1,1 0,-16A16,16 0 0,1 16,0Z" style="opacity: 1; stroke-width: 4px; fill: rgb(106, 0, 168); fill-opacity: 1; stroke: rgb(0, 0, 0); stroke-opacity: 0.4;"/><path class="point plotly-customdata" transform="translate(215.55,1031.54)" d="M16,0A16,16 0 1,1 0,-16A16,16 0 0,1 16,0Z" style="opacity: 1; stroke-width: 4px; fill: rgb(106, 0, 168); fill-opacity: 1; stroke: rgb(0, 0, 0); stroke-opacity: 0.4;"/><path class="point plotly-customdata" transform="translate(1010.62,860.7)" d="M16,0A16,16 0 1,1 0,-16A16,16 0 0,1 16,0Z" style="opacity: 1; stroke-width: 4px; fill: rgb(177, 42, 144); fill-opacity: 1; stroke: rgb(0, 0, 0); stroke-opacity: 0.4;"/></g><g class="text"/></g></g></g></g><path class="xlines-above crisp" d="M167,1758.5H1636" style="fill: none; stroke-width: 1px; stroke: rgb(0, 0, 0); stroke-opacity: 1;"/><path class="ylines-above crisp" d="M167.5,100V1758" style="fill: none; stroke-width: 1px; stroke: rgb(0, 0, 0); stroke-opacity: 1;"/><g class="overlines-above"/><g class="xaxislayer-above"><path class="xtick ticks crisp" d="M0,1759v5" transform="translate(330.09000000000003,0)" style="stroke: rgb(68, 68, 68); stroke-opacity: 1; stroke-width: 1px;"/><path class="xtick ticks crisp" d="M0,1759v5" transform="translate(537.5,0)" style="stroke: rgb(68, 68, 68); stroke-opacity: 1; stroke-width: 1px;"/><path class="xtick ticks crisp" d="M0,1759v5" transform="translate(744.91,0)" style="stroke: rgb(68, 68, 68); stroke-opacity: 1; stroke-width: 1px;"/><path class="xtick ticks crisp" d="M0,1759v5" transform="translate(952.32,0)" style="stroke: rgb(68, 68, 68); stroke-opacity: 1; stroke-width: 1px;"/><path class="xtick ticks crisp" d="M0,1759v5" transform="translate(1159.73,0)" style="stroke: rgb(68, 68, 68); stroke-opacity: 1; stroke-width: 1px;"/><path class="xtick ticks crisp" d="M0,1759v5" transform="translate(1367.14,0)" style="stroke: rgb(68, 68, 68); stroke-opacity: 1; stroke-width: 1px;"/><path class="xtick ticks crisp" d="M0,1759v5" transform="translate(1574.55,0)" style="stroke: rgb(68, 68, 68); stroke-opacity: 1; stroke-width: 1px;"/><g class="xtick"><text text-anchor="middle" x="0" y="1821.6" transform="translate(330.09000000000003,0)" style="font-family: 'Times New Roman'; font-size: 48px; fill: rgb(42, 63, 95); fill-opacity: 1; white-space: pre; opacity: 1;">0%</text></g><g class="xtick"><text text-anchor="middle" x="0" y="1821.6" style="font-family: 'Times New Roman'; font-size: 48px; fill: rgb(42, 63, 95); fill-opacity: 1; white-space: pre; opacity: 1;" transform="translate(537.5,0)">10%</text></g><g class="xtick"><text text-anchor="middle" x="0" y="1821.6" style="font-family: 'Times New Roman'; font-size: 48px; fill: rgb(42, 63, 95); fill-opacity: 1; white-space: pre; opacity: 1;" transform="translate(744.91,0)">20%</text></g><g class="xtick"><text text-anchor="middle" x="0" y="1821.6" style="font-family: 'Times New Roman'; font-size: 48px; fill: rgb(42, 63, 95); fill-opacity: 1; white-space: pre; opacity: 1;" transform="translate(952.32,0)">30%</text></g><g class="xtick"><text text-anchor="middle" x="0" y="1821.6" style="font-family: 'Times New Roman'; font-size: 48px; fill: rgb(42, 63, 95); fill-opacity: 1; white-space: pre; opacity: 1;" transform="translate(1159.73,0)">40%</text></g><g class="xtick"><text text-anchor="middle" x="0" y="1821.6" style="font-family: 'Times New Roman'; font-size: 48px; fill: rgb(42, 63, 95); fill-opacity: 1; white-space: pre; opacity: 1;" transform="translate(1367.14,0)">50%</text></g><g class="xtick"><text text-anchor="middle" x="0" y="1821.6" style="font-family: 'Times New Roman'; font-size: 48px; fill: rgb(42, 63, 95); fill-opacity: 1; white-space: pre; opacity: 1;" transform="translate(1574.55,0)">60%</text></g></g><g class="yaxislayer-above"><path class="ytick ticks crisp" d="M167,0h-5" transform="translate(0,1558.03)" style="stroke: rgb(68, 68, 68); stroke-opacity: 1; stroke-width: 1px;"/><path class="ytick ticks crisp" d="M167,0h-5" transform="translate(0,1259.26)" style="stroke: rgb(68, 68, 68); stroke-opacity: 1; stroke-width: 1px;"/><path class="ytick ticks crisp" d="M167,0h-5" transform="translate(0,960.5)" style="stroke: rgb(68, 68, 68); stroke-opacity: 1; stroke-width: 1px;"/><path class="ytick ticks crisp" d="M167,0h-5" transform="translate(0,661.73)" style="stroke: rgb(68, 68, 68); stroke-opacity: 1; stroke-width: 1px;"/><path class="ytick ticks crisp" d="M167,0h-5" transform="translate(0,362.97)" style="stroke: rgb(68, 68, 68); stroke-opacity: 1; stroke-width: 1px;"/><g class="ytick"><text text-anchor="end" x="152.4" y="16.799999999999997" transform="translate(0,1558.03)" style="font-family: 'Times New Roman'; font-size: 48px; fill: rgb(42, 63, 95); fill-opacity: 1; white-space: pre; opacity: 1;">2%</text></g><g class="ytick"><text text-anchor="end" x="152.4" y="16.799999999999997" style="font-family: 'Times New Roman'; font-size: 48px; fill: rgb(42, 63, 95); fill-opacity: 1; white-space: pre; opacity: 1;" transform="translate(0,1259.26)">3%</text></g><g class="ytick"><text text-anchor="end" x="152.4" y="16.799999999999997" style="font-family: 'Times New Roman'; font-size: 48px; fill: rgb(42, 63, 95); fill-opacity: 1; white-space: pre; opacity: 1;" transform="translate(0,960.5)">4%</text></g><g class="ytick"><text text-anchor="end" x="152.4" y="16.799999999999997" style="font-family: 'Times New Roman'; font-size: 48px; fill: rgb(42, 63, 95); fill-opacity: 1; white-space: pre; opacity: 1;" transform="translate(0,661.73)">5%</text></g><g class="ytick"><text text-anchor="end" x="152.4" y="16.799999999999997" style="font-family: 'Times New Roman'; font-size: 48px; fill: rgb(42, 63, 95); fill-opacity: 1; white-space: pre; opacity: 1;" transform="translate(0,362.97)">6%</text></g></g><g class="overaxes-above"/></g></g><g class="polarlayer"/><g class="smithlayer"/><g class="ternarylayer"/><g class="geolayer"/><g class="funnelarealayer"/><g class="pielayer"/><g class="iciclelayer"/><g class="treemaplayer"/><g class="sunburstlayer"/><g class="glimages"/><defs id="topdefs-6e5c77"><g class="clips"/></defs><g class="layer-above"><g class="imagelayer"/><g class="shapelayer"/></g><g class="infolayer"><g class="cbcoloraxis colorbar" transform="translate(168,100)"><rect class="cbbg" x="1497" y="0" width="242.6875" height="1658" style="fill: rgb(0, 0, 0); fill-opacity: 0; stroke: rgb(68, 68, 68); stroke-opacity: 1; stroke-width: 0;"/><g class="cbfills" transform="translate(0,155)"><rect class="cbfill gradient_filled" style="fill: url('#g6e5c77-cbcoloraxis');" x="1507" y="0" width="30" height="1493"/></g><g class="cblines" transform="translate(0,155)"/><g class="cbaxis crisp" transform="translate(0,-100)"><g class="ycbcoloraxistick"><text text-anchor="start" x="1547.1" y="16.799999999999997" transform="translate(0,1747.99625)" style="font-family: 'Times New Roman'; font-size: 48px; fill: rgb(42, 63, 95); fill-opacity: 1; white-space: pre; opacity: 1;">0%</text></g><g class="ycbcoloraxistick"><text text-anchor="start" x="1547.1" y="16.799999999999997" style="font-family: 'Times New Roman'; font-size: 48px; fill: rgb(42, 63, 95); fill-opacity: 1; white-space: pre; opacity: 1;" transform="translate(0,1499.23625)">5%</text></g><g class="ycbcoloraxistick"><text text-anchor="start" x="1547.1" y="16.799999999999997" style="font-family: 'Times New Roman'; font-size: 48px; fill: rgb(42, 63, 95); fill-opacity: 1; white-space: pre; opacity: 1;" transform="translate(0,1250.46625)">10%</text></g><g class="ycbcoloraxistick"><text text-anchor="start" x="1547.1" y="16.799999999999997" style="font-family: 'Times New Roman'; font-size: 48px; fill: rgb(42, 63, 95); fill-opacity: 1; white-space: pre; opacity: 1;" transform="translate(0,1001.7062499999998)">15%</text></g><g class="ycbcoloraxistick"><text text-anchor="start" x="1547.1" y="16.799999999999997" style="font-family: 'Times New Roman'; font-size: 48px; fill: rgb(42, 63, 95); fill-opacity: 1; white-space: pre; opacity: 1;" transform="translate(0,752.9362499999999)">20%</text></g><g class="ycbcoloraxistick"><text text-anchor="start" x="1547.1" y="16.799999999999997" style="font-family: 'Times New Roman'; font-size: 48px; fill: rgb(42, 63, 95); fill-opacity: 1; white-space: pre; opacity: 1;" transform="translate(0,504.1762499999999)">25%</text></g></g><g class="cbtitleunshift" transform="translate(-168,-100)"><g class="cbtitle" transform=""><text class="ycbcoloraxistitle" x="1675.3600000000001" y="156.5" text-anchor="start" style="opacity: 1; font-family: 'Times New Roman'; font-size: 58px; fill: rgb(42, 63, 95); fill-opacity: 1; white-space: pre;"><tspan class="line" dy="0em" x="1675.3600000000001" y="156.5">MACME</tspan><tspan class="line" dy="1.3em" x="1675.3600000000001" y="156.5">(Ex-Post)</tspan></text></g></g><rect class="cboutline" x="1507" y="155.40625" width="30" height="1492.59375" style="stroke: rgb(68, 68, 68); stroke-opacity: 1; fill: none; stroke-width: 0;"/></g><g class="g-gtitle"/><g class="g-xtitle" transform="translate(0,-0.709374999999909)"><text class="xtitle" x="902" y="1907.709375" text-anchor="middle" style="opacity: 1; font-family: 'Times New Roman'; font-size: 58px; fill: rgb(42, 63, 95); fill-opacity: 1; white-space: pre;">LDES Capacity Error (Ex-Post)</text></g><g class="g-ytitle" transform="translate(19.3935546875,0)"><text class="ytitle" transform="rotate(-90,32.60624999999999,929)" x="32.60624999999999" y="929" text-anchor="middle" style="opacity: 1; font-family: 'Times New Roman'; font-size: 58px; fill: rgb(42, 63, 95); fill-opacity: 1; white-space: pre;">Duration Curve Error (Ex-Ante)</text></g></g></svg>