<svg class="main-svg" xmlns="http://www.w3.org/2000/svg" xmlns:xlink="http://www.w3.org/1999/xlink" width="1920" height="1920" style="" viewBox="0 0 1920 1920"><rect x="0" y="0" width="1920" height="1920" style="fill: rgb(255, 255, 255); fill-opacity: 1;"/><defs id="defs-48818f"><g class="clips"><clipPath id="clip48818fxyplot" class="plotclip"><rect width="1669" height="1679"/></clipPath><clipPath class="axesclip" id="clip48818fx"><rect x="171" y="0" width="1669" height="1920"/></clipPath><clipPath class="axesclip" id="clip48818fy"><rect x="0" y="100" width="1920" height="1679"/></clipPath><clipPath class="axesclip" id="clip48818fxy"><rect x="171" y="100" width="1669" height="1679"/></clipPath></g><g class="gradients"/><g class="patterns"/></defs><g class="bglayer"><rect class="bg" x="171" y="100" width="1669" height="1679" style="fill: rgb(255, 255, 255); fill-opacity: 0; stroke-width: 0;"/></g><g class="layer-below"><g class="imagelayer"/><g class="shapelayer"/></g><g class="cartesianlayer"><g class="subplot xy"><g class="layer-subplot"><g class="shapelayer"/><g class="imagelayer"/></g><g class="minor-gridlayer"><g class="x"/><g class="y"/></g><g class="gridlayer"><g class="x"><path class="xgrid crisp" transform="translate(372.19,0)" d="M0,100v1679" style="stroke: rgb(0, 0, 0); stroke-opacity: 0.2; stroke-width: 1px;"/><path class="xgrid crisp" transform="translate(672.99,0)" d="M0,100v1679" style="stroke: rgb(0, 0, 0); stroke-opacity: 0.2; stroke-width: 1px;"/><path class="xgrid crisp" transform="translate(973.79,0)" d="M0,100v1679" style="stroke: rgb(0, 0, 0); stroke-opacity: 0.2; stroke-width: 1px;"/><path class="xgrid crisp" transform="translate(1274.59,0)" d="M0,100v1679" style="stroke: rgb(0, 0, 0); stroke-opacity: 0.2; stroke-width: 1px;"/><path class="xgrid crisp" transform="translate(1575.39,0)" d="M0,100v1679" style="stroke: rgb(0, 0, 0); stroke-opacity: 0.2; stroke-width: 1px;"/></g><g class="y"><path class="ygrid crisp" transform="translate(0,1552.77)" d="M171,0h1669" style="stroke: rgb(0, 0, 0); stroke-opacity: 0.2; stroke-width: 1px;"/><path class="ygrid crisp" transform="translate(0,1248.77)" d="M171,0h1669" style="stroke: rgb(0, 0, 0); stroke-opacity: 0.2; stroke-width: 1px;"/><path class="ygrid crisp" transform="translate(0,944.77)" d="M171,0h1669" style="stroke: rgb(0, 0, 0); stroke-opacity: 0.2; stroke-width: 1px;"/><path class="ygrid crisp" transform="translate(0,640.77)" d="M171,0h1669" style="stroke: rgb(0, 0, 0); stroke-opacity: 0.2; stroke-width: 1px;"/><path class="ygrid crisp" transform="translate(0,336.77)" d="M171,0h1669" style="stroke: rgb(0, 0, 0); stroke-opacity: 0.2; stroke-width: 1px;"/></g></g><g class="zerolinelayer"/><g class="layer-between"><g class="shapelayer"/><g class="imagelayer"/></g><path class="xlines-below"/><path class="ylines-below"/><g class="overlines-below"/><g class="xaxislayer-below"/><g class="yaxislayer-below"/><g class="overaxes-below"/><g class="overplot"><g class="xy" transform="translate(171,100)" clip-path="url(#clip48818fxyplot)"><g class="scatterlayer mlayer"><g class="trace scatter traced67983" style="stroke-miterlimit: 2; opacity: 1;"><g class="fills"/><g class="errorbars"/><g class="lines"/><g class="points"><path class="point" transform="translate(1538.94,1220.35)" d="M16,0A16,16 0 1,1 0,-16A16,16 0 0,1 16,0Z" style="opacity: 1; stroke-width: 4px; fill: rgb(101, 107, 157); fill-opacity: 1; stroke: rgb(101, 107, 157); stroke-opacity: 1;"/><path class="point" transform="translate(491.86,1575.05)" d="M16,0A16,16 0 1,1 0,-16A16,16 0 0,1 16,0Z" style="opacity: 1; stroke-width: 4px; fill: rgb(101, 107, 157); fill-opacity: 1; stroke: rgb(101, 107, 157); stroke-opacity: 1;"/><path class="point" transform="translate(220.99,1566.46)" d="M16,0A16,16 0 1,1 0,-16A16,16 0 0,1 16,0Z" style="opacity: 1; stroke-width: 4px; fill: rgb(101, 107, 157); fill-opacity: 1; stroke: rgb(101, 107, 157); stroke-opacity: 1;"/><path class="point" transform="translate(103.45,1559.4)" d="M16,0A16,16 0 1,1 0,-16A16,16 0 0,1 16,0Z" style="opacity: 1; stroke-width: 4px; fill: rgb(101, 107, 157); fill-opacity: 1; stroke: rgb(101, 107, 157); stroke-opacity: 1;"/><path class="point" transform="translate(533.75,1468.74)" d="M16,0A16,16 0 1,1 0,-16A16,16 0 0,1 16,0Z" style="opacity: 1; stroke-width: 4px; fill: rgb(101, 107, 157); fill-opacity: 1; stroke: rgb(101, 107, 157); stroke-opacity: 1;"/><path class="point" transform="translate(1181.6,1492.24)" d="M16,0A16,16 0 1,1 0,-16A16,16 0 0,1 16,0Z" style="opacity: 1; stroke-width: 4px; fill: rgb(101, 107, 157); fill-opacity: 1; stroke: rgb(101, 107, 157); stroke-opacity: 1;"/><path class="point" transform="translate(400.73,1406.42)" d="M16,0A16,16 0 1,1 0,-16A16,16 0 0,1 16,0Z" style="opacity: 1; stroke-width: 4px; fill: rgb(101, 107, 157); fill-opacity: 1; stroke: rgb(101, 107, 157); stroke-opacity: 1;"/><path class="point" transform="translate(630.58,1423.42)" d="M16,0A16,16 0 1,1 0,-16A16,16 0 0,1 16,0Z" style="opacity: 1; stroke-width: 4px; fill: rgb(101, 107, 157); fill-opacity: 1; stroke: rgb(101, 107, 157); stroke-opacity: 1;"/></g><g class="text"/></g><g class="trace scatter tracee6eeb6" style="stroke-miterlimit: 2; opacity: 1;"><g class="fills"/><g class="errorbars"/><g class="lines"/><g class="points"><path class="point" transform="translate(1336.41,177.57)" d="M16,0A16,16 0 1,1 0,-16A16,16 0 0,1 16,0Z" style="opacity: 1; stroke-width: 4px; fill: rgb(101, 107, 157); fill-opacity: 0.1; stroke: rgb(101, 107, 157); stroke-opacity: 1;"/><path class="point" transform="translate(1327.96,362.07)" d="M16,0A16,16 0 1,1 0,-16A16,16 0 0,1 16,0Z" style="opacity: 1; stroke-width: 4px; fill: rgb(101, 107, 157); fill-opacity: 0.1; stroke: rgb(101, 107, 157); stroke-opacity: 1;"/><path class="point" transform="translate(1420.82,383.96)" d="M16,0A16,16 0 1,1 0,-16A16,16 0 0,1 16,0Z" style="opacity: 1; stroke-width: 4px; fill: rgb(101, 107, 157); fill-opacity: 0.1; stroke: rgb(101, 107, 157); stroke-opacity: 1;"/><path class="point" transform="translate(1272.97,103.95)" d="M16,0A16,16 0 1,1 0,-16A16,16 0 0,1 16,0Z" style="opacity: 1; stroke-width: 4px; fill: rgb(101, 107, 157); fill-opacity: 0.1; stroke: rgb(101, 107, 157); stroke-opacity: 1;"/><path class="point" transform="translate(1304.45,1050.5)" d="M16,0A16,16 0 1,1 0,-16A16,16 0 0,1 16,0Z" style="opacity: 1; stroke-width: 4px; fill: rgb(101, 107, 157); fill-opacity: 0.1; stroke: rgb(101, 107, 157); stroke-opacity: 1;"/><path class="point" transform="translate(1382.08,515.64)" d="M16,0A16,16 0 1,1 0,-16A16,16 0 0,1 16,0Z" style="opacity: 1; stroke-width: 4px; fill: rgb(101, 107, 157); fill-opacity: 0.1; stroke: rgb(101, 107, 157); stroke-opacity: 1;"/><path class="point" transform="translate(1198.87,163.74)" d="M16,0A16,16 0 1,1 0,-16A16,16 0 0,1 16,0Z" style="opacity: 1; stroke-width: 4px; fill: rgb(101, 107, 157); fill-opacity: 0.1; stroke: rgb(101, 107, 157); stroke-opacity: 1;"/><path class="point" transform="translate(474.05,531.79)" d="M16,0A16,16 0 1,1 0,-16A16,16 0 0,1 16,0Z" style="opacity: 1; stroke-width: 4px; fill: rgb(101, 107, 157); fill-opacity: 0.1; stroke: rgb(101, 107, 157); stroke-opacity: 1;"/><path class="point" transform="translate(546.28,165.13)" d="M16,0A16,16 0 1,1 0,-16A16,16 0 0,1 16,0Z" style="opacity: 1; stroke-width: 4px; fill: rgb(101, 107, 157); fill-opacity: 0.1; stroke: rgb(101, 107, 157); stroke-opacity: 1;"/><path class="point" transform="translate(594.78,633.41)" d="M16,0A16,16 0 1,1 0,-16A16,16 0 0,1 16,0Z" style="opacity: 1; stroke-width: 4px; fill: rgb(101, 107, 157); fill-opacity: 0.1; stroke: rgb(101, 107, 157); stroke-opacity: 1;"/><path class="point" transform="translate(461.07,748.79)" d="M16,0A16,16 0 1,1 0,-16A16,16 0 0,1 16,0Z" style="opacity: 1; stroke-width: 4px; fill: rgb(101, 107, 157); fill-opacity: 0.1; stroke: rgb(101, 107, 157); stroke-opacity: 1;"/><path class="point" transform="translate(489,933.3)" d="M16,0A16,16 0 1,1 0,-16A16,16 0 0,1 16,0Z" style="opacity: 1; stroke-width: 4px; fill: rgb(101, 107, 157); fill-opacity: 0.1; stroke: rgb(101, 107, 157); stroke-opacity: 1;"/><path class="point" transform="translate(383.43,485.59)" d="M16,0A16,16 0 1,1 0,-16A16,16 0 0,1 16,0Z" style="opacity: 1; stroke-width: 4px; fill: rgb(101, 107, 157); fill-opacity: 0.1; stroke: rgb(101, 107, 157); stroke-opacity: 1;"/><path class="point" transform="translate(268.92,180.62)" d="M16,0A16,16 0 1,1 0,-16A16,16 0 0,1 16,0Z" style="opacity: 1; stroke-width: 4px; fill: rgb(101, 107, 157); fill-opacity: 0.1; stroke: rgb(101, 107, 157); stroke-opacity: 1;"/><path class="point" transform="translate(359.84,496.25)" d="M16,0A16,16 0 1,1 0,-16A16,16 0 0,1 16,0Z" style="opacity: 1; stroke-width: 4px; fill: rgb(101, 107, 157); fill-opacity: 0.1; stroke: rgb(101, 107, 157); stroke-opacity: 1;"/><path class="point" transform="translate(429.54,737.35)" d="M16,0A16,16 0 1,1 0,-16A16,16 0 0,1 16,0Z" style="opacity: 1; stroke-width: 4px; fill: rgb(101, 107, 157); fill-opacity: 0.1; stroke: rgb(101, 107, 157); stroke-opacity: 1;"/><path class="point" transform="translate(398.2,348.27)" d="M16,0A16,16 0 1,1 0,-16A16,16 0 0,1 16,0Z" style="opacity: 1; stroke-width: 4px; fill: rgb(101, 107, 157); fill-opacity: 0.1; stroke: rgb(101, 107, 157); stroke-opacity: 1;"/><path class="point" transform="translate(299.07,645.12)" d="M16,0A16,16 0 1,1 0,-16A16,16 0 0,1 16,0Z" style="opacity: 1; stroke-width: 4px; fill: rgb(101, 107, 157); fill-opacity: 0.1; stroke: rgb(101, 107, 157); stroke-opacity: 1;"/><path class="point" transform="translate(469.1,591.02)" d="M16,0A16,16 0 1,1 0,-16A16,16 0 0,1 16,0Z" style="opacity: 1; stroke-width: 4px; fill: rgb(101, 107, 157); fill-opacity: 0.1; stroke: rgb(101, 107, 157); stroke-opacity: 1;"/><path class="point" transform="translate(162,237.04)" d="M16,0A16,16 0 1,1 0,-16A16,16 0 0,1 16,0Z" style="opacity: 1; stroke-width: 4px; fill: rgb(101, 107, 157); fill-opacity: 0.1; stroke: rgb(101, 107, 157); stroke-opacity: 1;"/><path class="point" transform="translate(342.89,395.49)" d="M16,0A16,16 0 1,1 0,-16A16,16 0 0,1 16,0Z" style="opacity: 1; stroke-width: 4px; fill: rgb(101, 107, 157); fill-opacity: 0.1; stroke: rgb(101, 107, 157); stroke-opacity: 1;"/><path class="point" transform="translate(346.89,486.67)" d="M16,0A16,16 0 1,1 0,-16A16,16 0 0,1 16,0Z" style="opacity: 1; stroke-width: 4px; fill: rgb(101, 107, 157); fill-opacity: 0.1; stroke: rgb(101, 107, 157); stroke-opacity: 1;"/><path class="point" transform="translate(292.05,1017.06)" d="M16,0A16,16 0 1,1 0,-16A16,16 0 0,1 16,0Z" style="opacity: 1; stroke-width: 4px; fill: rgb(101, 107, 157); fill-opacity: 0.1; stroke: rgb(101, 107, 157); stroke-opacity: 1;"/><path class="point" transform="translate(189.44,1009.57)" d="M16,0A16,16 0 1,1 0,-16A16,16 0 0,1 16,0Z" style="opacity: 1; stroke-width: 4px; fill: rgb(101, 107, 157); fill-opacity: 0.1; stroke: rgb(101, 107, 157); stroke-opacity: 1;"/><path class="point" transform="translate(371.85,426.82)" d="M16,0A16,16 0 1,1 0,-16A16,16 0 0,1 16,0Z" style="opacity: 1; stroke-width: 4px; fill: rgb(101, 107, 157); fill-opacity: 0.1; stroke: rgb(101, 107, 157); stroke-opacity: 1;"/><path class="point" transform="translate(550.7,169.5)" d="M16,0A16,16 0 1,1 0,-16A16,16 0 0,1 16,0Z" style="opacity: 1; stroke-width: 4px; fill: rgb(101, 107, 157); fill-opacity: 0.1; stroke: rgb(101, 107, 157); stroke-opacity: 1;"/><path class="point" transform="translate(464.19,435.3)" d="M16,0A16,16 0 1,1 0,-16A16,16 0 0,1 16,0Z" style="opacity: 1; stroke-width: 4px; fill: rgb(101, 107, 157); fill-opacity: 0.1; stroke: rgb(101, 107, 157); stroke-opacity: 1;"/><path class="point" transform="translate(399.33,495.42)" d="M16,0A16,16 0 1,1 0,-16A16,16 0 0,1 16,0Z" style="opacity: 1; stroke-width: 4px; fill: rgb(101, 107, 157); fill-opacity: 0.1; stroke: rgb(101, 107, 157); stroke-opacity: 1;"/><path class="point" transform="translate(428.24,1109.82)" d="M16,0A16,16 0 1,1 0,-16A16,16 0 0,1 16,0Z" style="opacity: 1; stroke-width: 4px; fill: rgb(101, 107, 157); fill-opacity: 0.1; stroke: rgb(101, 107, 157); stroke-opacity: 1;"/><path class="point" transform="translate(436.7,720.35)" d="M16,0A16,16 0 1,1 0,-16A16,16 0 0,1 16,0Z" style="opacity: 1; stroke-width: 4px; fill: rgb(101, 107, 157); fill-opacity: 0.1; stroke: rgb(101, 107, 157); stroke-opacity: 1;"/><path class="point" transform="translate(300.61,203.47)" d="M16,0A16,16 0 1,1 0,-16A16,16 0 0,1 16,0Z" style="opacity: 1; stroke-width: 4px; fill: rgb(101, 107, 157); fill-opacity: 0.1; stroke: rgb(101, 107, 157); stroke-opacity: 1;"/><path class="point" transform="translate(1179.86,283.96)" d="M16,0A16,16 0 1,1 0,-16A16,16 0 0,1 16,0Z" style="opacity: 1; stroke-width: 4px; fill: rgb(101, 107, 157); fill-opacity: 0.1; stroke: rgb(101, 107, 157); stroke-opacity: 1;"/><path class="point" transform="translate(1435.9,789.61)" d="M16,0A16,16 0 1,1 0,-16A16,16 0 0,1 16,0Z" style="opacity: 1; stroke-width: 4px; fill: rgb(101, 107, 157); fill-opacity: 0.1; stroke: rgb(101, 107, 157); stroke-opacity: 1;"/><path class="point" transform="translate(1447.52,511.22)" d="M16,0A16,16 0 1,1 0,-16A16,16 0 0,1 16,0Z" style="opacity: 1; stroke-width: 4px; fill: rgb(101, 107, 157); fill-opacity: 0.1; stroke: rgb(101, 107, 157); stroke-opacity: 1;"/><path class="point" transform="translate(1329.27,626.27)" d="M16,0A16,16 0 1,1 0,-16A16,16 0 0,1 16,0Z" style="opacity: 1; stroke-width: 4px; fill: rgb(101, 107, 157); fill-opacity: 0.1; stroke: rgb(101, 107, 157); stroke-opacity: 1;"/><path class="point" transform="translate(1353.7,835.91)" d="M16,0A16,16 0 1,1 0,-16A16,16 0 0,1 16,0Z" style="opacity: 1; stroke-width: 4px; fill: rgb(101, 107, 157); fill-opacity: 0.1; stroke: rgb(101, 107, 157); stroke-opacity: 1;"/><path class="point" transform="translate(1565.55,292.5)" d="M16,0A16,16 0 1,1 0,-16A16,16 0 0,1 16,0Z" style="opacity: 1; stroke-width: 4px; fill: rgb(101, 107, 157); fill-opacity: 0.1; stroke: rgb(101, 107, 157); stroke-opacity: 1;"/><path class="point" transform="translate(951.53,1333.22)" d="M16,0A16,16 0 1,1 0,-16A16,16 0 0,1 16,0Z" style="opacity: 1; stroke-width: 4px; fill: rgb(101, 107, 157); fill-opacity: 0.1; stroke: rgb(101, 107, 157); stroke-opacity: 1;"/><path class="point" transform="translate(787.96,887.75)" d="M16,0A16,16 0 1,1 0,-16A16,16 0 0,1 16,0Z" style="opacity: 1; stroke-width: 4px; fill: rgb(101, 107, 157); fill-opacity: 0.1; stroke: rgb(101, 107, 157); stroke-opacity: 1;"/><path class="point" transform="translate(829.47,544.71)" d="M16,0A16,16 0 1,1 0,-16A16,16 0 0,1 16,0Z" style="opacity: 1; stroke-width: 4px; fill: rgb(101, 107, 157); fill-opacity: 0.1; stroke: rgb(101, 107, 157); stroke-opacity: 1;"/><path class="point" transform="translate(892.73,992.32)" d="M16,0A16,16 0 1,1 0,-16A16,16 0 0,1 16,0Z" style="opacity: 1; stroke-width: 4px; fill: rgb(101, 107, 157); fill-opacity: 0.1; stroke: rgb(101, 107, 157); stroke-opacity: 1;"/><path class="point" transform="translate(777.21,1111.33)" d="M16,0A16,16 0 1,1 0,-16A16,16 0 0,1 16,0Z" style="opacity: 1; stroke-width: 4px; fill: rgb(101, 107, 157); fill-opacity: 0.1; stroke: rgb(101, 107, 157); stroke-opacity: 1;"/><path class="point" transform="translate(905.25,1417.53)" d="M16,0A16,16 0 1,1 0,-16A16,16 0 0,1 16,0Z" style="opacity: 1; stroke-width: 4px; fill: rgb(101, 107, 157); fill-opacity: 0.1; stroke: rgb(101, 107, 157); stroke-opacity: 1;"/><path class="point" transform="translate(865.13,1339.2)" d="M16,0A16,16 0 1,1 0,-16A16,16 0 0,1 16,0Z" style="opacity: 1; stroke-width: 4px; fill: rgb(101, 107, 157); fill-opacity: 0.1; stroke: rgb(101, 107, 157); stroke-opacity: 1;"/><path class="point" transform="translate(659.67,208.73)" d="M16,0A16,16 0 1,1 0,-16A16,16 0 0,1 16,0Z" style="opacity: 1; stroke-width: 4px; fill: rgb(101, 107, 157); fill-opacity: 0.1; stroke: rgb(101, 107, 157); stroke-opacity: 1;"/><path class="point" transform="translate(613.68,619.46)" d="M16,0A16,16 0 1,1 0,-16A16,16 0 0,1 16,0Z" style="opacity: 1; stroke-width: 4px; fill: rgb(101, 107, 157); fill-opacity: 0.1; stroke: rgb(101, 107, 157); stroke-opacity: 1;"/><path class="point" transform="translate(526.94,549.75)" d="M16,0A16,16 0 1,1 0,-16A16,16 0 0,1 16,0Z" style="opacity: 1; stroke-width: 4px; fill: rgb(101, 107, 157); fill-opacity: 0.1; stroke: rgb(101, 107, 157); stroke-opacity: 1;"/><path class="point" transform="translate(622.93,682.24)" d="M16,0A16,16 0 1,1 0,-16A16,16 0 0,1 16,0Z" style="opacity: 1; stroke-width: 4px; fill: rgb(101, 107, 157); fill-opacity: 0.1; stroke: rgb(101, 107, 157); stroke-opacity: 1;"/><path class="point" transform="translate(628.34,722.15)" d="M16,0A16,16 0 1,1 0,-16A16,16 0 0,1 16,0Z" style="opacity: 1; stroke-width: 4px; fill: rgb(101, 107, 157); fill-opacity: 0.1; stroke: rgb(101, 107, 157); stroke-opacity: 1;"/><path class="point" transform="translate(581.85,1469.07)" d="M16,0A16,16 0 1,1 0,-16A16,16 0 0,1 16,0Z" style="opacity: 1; stroke-width: 4px; fill: rgb(101, 107, 157); fill-opacity: 0.1; stroke: rgb(101, 107, 157); stroke-opacity: 1;"/><path class="point" transform="translate(490.17,1137.76)" d="M16,0A16,16 0 1,1 0,-16A16,16 0 0,1 16,0Z" style="opacity: 1; stroke-width: 4px; fill: rgb(101, 107, 157); fill-opacity: 0.1; stroke: rgb(101, 107, 157); stroke-opacity: 1;"/><path class="point" transform="translate(373.73,234.34)" d="M16,0A16,16 0 1,1 0,-16A16,16 0 0,1 16,0Z" style="opacity: 1; stroke-width: 4px; fill: rgb(101, 107, 157); fill-opacity: 0.1; stroke: rgb(101, 107, 157); stroke-opacity: 1;"/><path class="point" transform="translate(482.16,961.57)" d="M16,0A16,16 0 1,1 0,-16A16,16 0 0,1 16,0Z" style="opacity: 1; stroke-width: 4px; fill: rgb(101, 107, 157); fill-opacity: 0.1; stroke: rgb(101, 107, 157); stroke-opacity: 1;"/><path class="point" transform="translate(569.19,591.21)" d="M16,0A16,16 0 1,1 0,-16A16,16 0 0,1 16,0Z" style="opacity: 1; stroke-width: 4px; fill: rgb(101, 107, 157); fill-opacity: 0.1; stroke: rgb(101, 107, 157); stroke-opacity: 1;"/><path class="point" transform="translate(434.47,711.74)" d="M16,0A16,16 0 1,1 0,-16A16,16 0 0,1 16,0Z" style="opacity: 1; stroke-width: 4px; fill: rgb(101, 107, 157); fill-opacity: 0.1; stroke: rgb(101, 107, 157); stroke-opacity: 1;"/><path class="point" transform="translate(484.06,859.47)" d="M16,0A16,16 0 1,1 0,-16A16,16 0 0,1 16,0Z" style="opacity: 1; stroke-width: 4px; fill: rgb(101, 107, 157); fill-opacity: 0.1; stroke: rgb(101, 107, 157); stroke-opacity: 1;"/><path class="point" transform="translate(549.25,1253.63)" d="M16,0A16,16 0 1,1 0,-16A16,16 0 0,1 16,0Z" style="opacity: 1; stroke-width: 4px; fill: rgb(101, 107, 157); fill-opacity: 0.1; stroke: rgb(101, 107, 157); stroke-opacity: 1;"/><path class="point" transform="translate(609.66,170.64)" d="M16,0A16,16 0 1,1 0,-16A16,16 0 0,1 16,0Z" style="opacity: 1; stroke-width: 4px; fill: rgb(101, 107, 157); fill-opacity: 0.1; stroke: rgb(101, 107, 157); stroke-opacity: 1;"/><path class="point" transform="translate(873.86,488.23)" d="M16,0A16,16 0 1,1 0,-16A16,16 0 0,1 16,0Z" style="opacity: 1; stroke-width: 4px; fill: rgb(101, 107, 157); fill-opacity: 0.1; stroke: rgb(101, 107, 157); stroke-opacity: 1;"/><path class="point" transform="translate(889.86,551.23)" d="M16,0A16,16 0 1,1 0,-16A16,16 0 0,1 16,0Z" style="opacity: 1; stroke-width: 4px; fill: rgb(101, 107, 157); fill-opacity: 0.1; stroke: rgb(101, 107, 157); stroke-opacity: 1;"/><path class="point" transform="translate(763.83,179.6)" d="M16,0A16,16 0 1,1 0,-16A16,16 0 0,1 16,0Z" style="opacity: 1; stroke-width: 4px; fill: rgb(101, 107, 157); fill-opacity: 0.1; stroke: rgb(101, 107, 157); stroke-opacity: 1;"/><path class="point" transform="translate(938.79,859.97)" d="M16,0A16,16 0 1,1 0,-16A16,16 0 0,1 16,0Z" style="opacity: 1; stroke-width: 4px; fill: rgb(101, 107, 157); fill-opacity: 0.1; stroke: rgb(101, 107, 157); stroke-opacity: 1;"/><path class="point" transform="translate(909.74,1288.16)" d="M16,0A16,16 0 1,1 0,-16A16,16 0 0,1 16,0Z" style="opacity: 1; stroke-width: 4px; fill: rgb(101, 107, 157); fill-opacity: 0.1; stroke: rgb(101, 107, 157); stroke-opacity: 1;"/><path class="point" transform="translate(802.58,1132.39)" d="M16,0A16,16 0 1,1 0,-16A16,16 0 0,1 16,0Z" style="opacity: 1; stroke-width: 4px; fill: rgb(101, 107, 157); fill-opacity: 0.1; stroke: rgb(101, 107, 157); stroke-opacity: 1;"/></g><g class="text"/></g></g></g></g><path class="xlines-above crisp" d="M170,1779.5H1840" style="fill: none; stroke-width: 1px; stroke: rgb(0, 0, 0); stroke-opacity: 1;"/><path class="ylines-above crisp" d="M170.5,100V1779" style="fill: none; stroke-width: 1px; stroke: rgb(0, 0, 0); stroke-opacity: 1;"/><g class="overlines-above"/><g class="xaxislayer-above"><path class="xtick ticks crisp" d="M0,1780v5" transform="translate(372.19,0)" style="stroke: rgb(68, 68, 68); stroke-opacity: 1; stroke-width: 1px;"/><path class="xtick ticks crisp" d="M0,1780v5" transform="translate(672.99,0)" style="stroke: rgb(68, 68, 68); stroke-opacity: 1; stroke-width: 1px;"/><path class="xtick ticks crisp" d="M0,1780v5" transform="translate(973.79,0)" style="stroke: rgb(68, 68, 68); stroke-opacity: 1; stroke-width: 1px;"/><path class="xtick ticks crisp" d="M0,1780v5" transform="translate(1274.59,0)" style="stroke: rgb(68, 68, 68); stroke-opacity: 1; stroke-width: 1px;"/><path class="xtick ticks crisp" d="M0,1780v5" transform="translate(1575.39,0)" style="stroke: rgb(68, 68, 68); stroke-opacity: 1; stroke-width: 1px;"/><g class="xtick"><text text-anchor="middle" x="0" y="1842.6" transform="translate(372.19,0)" style="font-family: 'Times New Roman'; font-size: 48px; fill: rgb(42, 63, 95); fill-opacity: 1; white-space: pre; opacity: 1;">2%</text></g><g class="xtick"><text text-anchor="middle" x="0" y="1842.6" style="font-family: 'Times New Roman'; font-size: 48px; fill: rgb(42, 63, 95); fill-opacity: 1; white-space: pre; opacity: 1;" transform="translate(672.99,0)">3%</text></g><g class="xtick"><text text-anchor="middle" x="0" y="1842.6" style="font-family: 'Times New Roman'; font-size: 48px; fill: rgb(42, 63, 95); fill-opacity: 1; white-space: pre; opacity: 1;" transform="translate(973.79,0)">4%</text></g><g class="xtick"><text text-anchor="middle" x="0" y="1842.6" style="font-family: 'Times New Roman'; font-size: 48px; fill: rgb(42, 63, 95); fill-opacity: 1; white-space: pre; opacity: 1;" transform="translate(1274.59,0)">5%</text></g><g class="xtick"><text text-anchor="middle" x="0" y="1842.6" style="font-family: 'Times New Roman'; font-size: 48px; fill: rgb(42, 63, 95); fill-opacity: 1; white-space: pre; opacity: 1;" transform="translate(1575.39,0)">6%</text></g></g><g class="yaxislayer-above"><path class="ytick ticks crisp" d="M170,0h-5" transform="translate(0,1552.77)" style="stroke: rgb(68, 68, 68); stroke-opacity: 1; stroke-width: 1px;"/><path class="ytick ticks crisp" d="M170,0h-5" transform="translate(0,1248.77)" style="stroke: rgb(68, 68, 68); stroke-opacity: 1; stroke-width: 1px;"/><path class="ytick ticks crisp" d="M170,0h-5" transform="translate(0,944.77)" style="stroke: rgb(68, 68, 68); stroke-opacity: 1; stroke-width: 1px;"/><path class="ytick ticks crisp" d="M170,0h-5" transform="translate(0,640.77)" style="stroke: rgb(68, 68, 68); stroke-opacity: 1; stroke-width: 1px;"/><path class="ytick ticks crisp" d="M170,0h-5" transform="translate(0,336.77)" style="stroke: rgb(68, 68, 68); stroke-opacity: 1; stroke-width: 1px;"/><g class="ytick"><text text-anchor="end" x="155.4" y="16.799999999999997" transform="translate(0,1552.77)" style="font-family: 'Times New Roman'; font-size: 48px; fill: rgb(42, 63, 95); fill-opacity: 1; white-space: pre; opacity: 1;">5%</text></g><g class="ytick"><text text-anchor="end" x="155.4" y="16.799999999999997" style="font-family: 'Times New Roman'; font-size: 48px; fill: rgb(42, 63, 95); fill-opacity: 1; white-space: pre; opacity: 1;" transform="translate(0,1248.77)">10%</text></g><g class="ytick"><text text-anchor="end" x="155.4" y="16.799999999999997" style="font-family: 'Times New Roman'; font-size: 48px; fill: rgb(42, 63, 95); fill-opacity: 1; white-space: pre; opacity: 1;" transform="translate(0,944.77)">15%</text></g><g class="ytick"><text text-anchor="end" x="155.4" y="16.799999999999997" style="font-family: 'Times New Roman'; font-size: 48px; fill: rgb(42, 63, 95); fill-opacity: 1; white-space: pre; opacity: 1;" transform="translate(0,640.77)">20%</text></g><g class="ytick"><text text-anchor="end" x="155.4" y="16.799999999999997" style="font-family: 'Times New Roman'; font-size: 48px; fill: rgb(42, 63, 95); fill-opacity: 1; white-space: pre; opacity: 1;" transform="translate(0,336.77)">25%</text></g></g><g class="overaxes-above"/></g></g><g class="polarlayer"/><g class="smithlayer"/><g class="ternarylayer"/><g class="geolayer"/><g class="funnelarealayer"/><g class="pielayer"/><g class="iciclelayer"/><g class="treemaplayer"/><g class="sunburstlayer"/><g class="glimages"/><defs id="topdefs-48818f"><g class="clips"/><clipPath id="legend48818f"><rect width="1361" height="76" x="0" y="0"/></clipPath></defs><g class="layer-above"><g class="imagelayer"/><g class="shapelayer"/></g><g class="infolayer"><g class="legend" pointer-events="all" transform="translate(325,57.58000000000004)"><rect class="bg" shape-rendering="crispEdges" style="stroke: rgb(68, 68, 68); stroke-opacity: 1; fill: rgb(255, 255, 255); fill-opacity: 1; stroke-width: 0px;" width="1361" height="76" x="0" y="0"/><g class="scrollbox" transform="" clip-path="url(#legend48818f)"><g class="groups"><g class="traces" transform="translate(0,37.7)" style="opacity: 1;"><text class="legendtext" text-anchor="start" x="40" y="18.720000000000002" style="font-family: 'Times New Roman'; font-size: 48px; fill: rgb(42, 63, 95); fill-opacity: 1; white-space: pre;">Includes System Defining Years: [2016, 2017]</text><g class="layers" style="opacity: 1;"><g class="legendfill"/><g class="legendlines"/><g class="legendsymbols"><g class="legendpoints"><path class="scatterpts" transform="translate(20,0)" d="M8,0A8,8 0 1,1 0,-8A8,8 0 0,1 8,0Z" style="opacity: 1; stroke-width: 4px; fill: rgb(101, 107, 157); fill-opacity: 1; stroke: rgb(101, 107, 157); stroke-opacity: 1;"/></g></g></g><rect class="legendtoggle" x="0" y="-32.7" width="933.53125" height="65.4" style="fill: rgb(0, 0, 0); fill-opacity: 0;"/></g><g class="traces" transform="translate(936.03125,37.7)" style="opacity: 1;"><text class="legendtext" text-anchor="start" x="40" y="18.720000000000002" style="font-family: 'Times New Roman'; font-size: 48px; fill: rgb(42, 63, 95); fill-opacity: 1; white-space: pre;">Remaining Clusters</text><g class="layers" style="opacity: 1;"><g class="legendfill"/><g class="legendlines"/><g class="legendsymbols"><g class="legendpoints"><path class="scatterpts" transform="translate(20,0)" d="M8,0A8,8 0 1,1 0,-8A8,8 0 0,1 8,0Z" style="opacity: 1; stroke-width: 4px; fill: rgb(101, 107, 157); fill-opacity: 0.1; stroke: rgb(101, 107, 157); stroke-opacity: 1;"/></g></g></g><rect class="legendtoggle" x="0" y="-32.7" width="422.46875" height="65.4" style="fill: rgb(0, 0, 0); fill-opacity: 0;"/></g></g></g><rect class="scrollbar" rx="20" ry="3" width="0" height="0" style="fill: rgb(128, 139, 164); fill-opacity: 1;" x="0" y="0"/></g><g class="g-gtitle"/><g class="g-xtitle" transform="translate(0,-0.709374999999909)"><text class="xtitle" x="1005.5" y="1907.709375" text-anchor="middle" style="opacity: 1; font-family: 'Times New Roman'; font-size: 58px; fill: rgb(42, 63, 95); fill-opacity: 1; white-space: pre;">Duration Curve Error (Ex-Ante)</text></g><g class="g-ytitle" transform="translate(19.3935546875,0)"><text class="ytitle" transform="rotate(-90,32.60624999999999,939.5)" x="32.60624999999999" y="939.5" text-anchor="middle" style="opacity: 1; font-family: 'Times New Roman'; font-size: 58px; fill: rgb(42, 63, 95); fill-opacity: 1; white-space: pre;">Mean Absolute Capacity Mix Error (Ex-Post)</text></g></g></svg>